<svg width="19" height="21" viewBox="0 0 19 21" fill="none" xmlns="http://www.w3.org/2000/svg">
<path d="M7.6 0C6.365 0 5.32 0.87992 4.921 2.09505H0V4.1901H4.921C5.3105 5.40522 6.3555 6.28515 7.6 6.28515C9.1675 6.28515 10.45 4.87099 10.45 3.14257C10.45 1.41416 9.1675 0 7.6 0ZM12.35 2.09505V4.1901H19V2.09505H12.35ZM12.35 7.33267C11.115 7.33267 10.07 8.21259 9.671 9.42772H0V11.5228H9.671C10.0605 12.7379 11.1055 13.6178 12.35 13.6178C13.9175 13.6178 15.2 12.2037 15.2 10.4752C15.2 8.74683 13.9175 7.33267 12.35 7.33267ZM17.1 9.42772V11.5228H19V9.42772H17.1ZM4.75 14.6653C3.515 14.6653 2.47 15.5453 2.071 16.7604H0V18.8554H2.071C2.4605 20.0706 3.5055 20.9505 4.75 20.9505C6.3175 20.9505 7.6 19.5363 7.6 17.8079C7.6 16.0795 6.3175 14.6653 4.75 14.6653ZM9.5 16.7604V18.8554H19V16.7604H9.5Z" fill="#404040"/>
</svg>
