<svg width="20" height="20" viewBox="0 0 20 20" fill="none" xmlns="http://www.w3.org/2000/svg">
<path d="M11.8182 7.27273H8.18182C7.94071 7.27273 7.70948 7.36851 7.53899 7.53899C7.36851 7.70948 7.27273 7.94071 7.27273 8.18182V19.0909C7.27273 19.332 7.36851 19.5632 7.53899 19.7337C7.70948 19.9042 7.94071 20 8.18182 20H11.8182C12.0593 20 12.2905 19.9042 12.461 19.7337C12.6315 19.5632 12.7273 19.332 12.7273 19.0909V8.18182C12.7273 7.94071 12.6315 7.70948 12.461 7.53899C12.2905 7.36851 12.0593 7.27273 11.8182 7.27273ZM10.9091 18.1818H9.09091V9.09091H10.9091V18.1818ZM19.0909 0H15.4545C15.2134 0 14.9822 0.0957789 14.8117 0.266267C14.6412 0.436754 14.5455 0.667985 14.5455 0.909091V19.0909C14.5455 19.332 14.6412 19.5632 14.8117 19.7337C14.9822 19.9042 15.2134 20 15.4545 20H19.0909C19.332 20 19.5632 19.9042 19.7337 19.7337C19.9042 19.5632 20 19.332 20 19.0909V0.909091C20 0.667985 19.9042 0.436754 19.7337 0.266267C19.5632 0.0957789 19.332 0 19.0909 0ZM18.1818 18.1818H16.3636V1.81818H18.1818V18.1818ZM4.54545 12.7273H0.909091C0.667985 12.7273 0.436754 12.8231 0.266267 12.9935C0.0957789 13.164 0 13.3953 0 13.6364V19.0909C0 19.332 0.0957789 19.5632 0.266267 19.7337C0.436754 19.9042 0.667985 20 0.909091 20H4.54545C4.78656 20 5.01779 19.9042 5.18828 19.7337C5.35877 19.5632 5.45455 19.332 5.45455 19.0909V13.6364C5.45455 13.3953 5.35877 13.164 5.18828 12.9935C5.01779 12.8231 4.78656 12.7273 4.54545 12.7273ZM3.63636 18.1818H1.81818V14.5455H3.63636V18.1818Z" fill="#434659"/>
</svg>
