<svg width="24" height="25" viewBox="0 0 24 25" fill="none" xmlns="http://www.w3.org/2000/svg">
<path d="M3 12.5L5 10.5M5 10.5L12 3.5L19 10.5M5 10.5V20.5C5 20.7652 5.10536 21.0196 5.29289 21.2071C5.48043 21.3946 5.73478 21.5 6 21.5H9M19 10.5L21 12.5M19 10.5V20.5C19 20.7652 18.8946 21.0196 18.7071 21.2071C18.5196 21.3946 18.2652 21.5 18 21.5H15M9 21.5C9.26522 21.5 9.51957 21.3946 9.70711 21.2071C9.89464 21.0196 10 20.7652 10 20.5V16.5C10 16.2348 10.1054 15.9804 10.2929 15.7929C10.4804 15.6054 10.7348 15.5 11 15.5H13C13.2652 15.5 13.5196 15.6054 13.7071 15.7929C13.8946 15.9804 14 16.2348 14 16.5V20.5C14 20.7652 14.1054 21.0196 14.2929 21.2071C14.4804 21.3946 14.7348 21.5 15 21.5M9 21.5H15" stroke="#434659" stroke-width="2" stroke-linecap="round" stroke-linejoin="round"/>
</svg>
