<svg width="24" height="25" viewBox="0 0 24 25" fill="none" xmlns="http://www.w3.org/2000/svg">
<path d="M14 3.89477C14 4.15999 14.1054 4.41435 14.2929 4.60188C14.4804 4.78942 14.7348 4.89477 15 4.89477L19 4.89477C19.2652 4.89477 19.5196 5.00013 19.7071 5.18767C19.8946 5.3752 20 5.62956 20 5.89477L20 19.8948C20 20.16 19.8946 20.4143 19.7071 20.6019C19.5196 20.7894 19.2652 20.8948 19 20.8948L15 20.8948C14.7348 20.8948 14.4804 21.0001 14.2929 21.1877C14.1054 21.3752 14 21.6296 14 21.8948C14 22.16 14.1054 22.4143 14.2929 22.6019C14.4804 22.7894 14.7348 22.8948 15 22.8948L19 22.8948C19.7956 22.8948 20.5587 22.5787 21.1213 22.0161C21.6839 21.4535 22 20.6904 22 19.8948L22 5.89477C22 5.09913 21.6839 4.33606 21.1213 3.77345C20.5587 3.21085 19.7956 2.89477 19 2.89477L15 2.89477C14.7348 2.89477 14.4804 3.00013 14.2929 3.18767C14.1054 3.3752 14 3.62956 14 3.89477ZM15.71 13.6048C15.801 13.5097 15.8724 13.3975 15.92 13.2748C15.9729 13.1551 16.0002 13.0256 16.0002 12.8948C16.0002 12.7639 15.9729 12.6345 15.92 12.5148C15.8724 12.392 15.801 12.2799 15.71 12.1848L11.71 8.18478C11.5217 7.99647 11.2663 7.89068 11 7.89068C10.7337 7.89068 10.4783 7.99647 10.29 8.18478C10.1017 8.37308 9.99591 8.62847 9.99591 8.89478C9.99591 9.16108 10.1017 9.41647 10.29 9.60478L12.59 11.8948L3 11.8948C2.73478 11.8948 2.48043 12.0001 2.29289 12.1877C2.10536 12.3752 2 12.6296 2 12.8948C2 13.16 2.10536 13.4143 2.29289 13.6019C2.48043 13.7894 2.73478 13.8948 3 13.8948L12.59 13.8948L10.29 16.1848C10.1968 16.278 10.1228 16.3887 10.0723 16.5105C10.0219 16.6323 9.99591 16.7629 9.99591 16.8948C9.99591 17.0266 10.0219 17.1572 10.0723 17.279C10.1228 17.4008 10.1968 17.5115 10.29 17.6048C10.3832 17.698 10.4939 17.772 10.6158 17.8224C10.7376 17.8729 10.8681 17.8989 11 17.8989C11.1319 17.8989 11.2624 17.8729 11.3842 17.8224C11.5061 17.772 11.6168 17.698 11.71 17.6048L15.71 13.6048Z" fill="#434659"/>
</svg>
