<svg width="24" height="25" viewBox="0 0 24 25" fill="none" xmlns="http://www.w3.org/2000/svg">
<path d="M10.325 5.19859C10.751 3.44259 13.249 3.44259 13.675 5.19859C13.7389 5.46239 13.8642 5.70737 14.0407 5.91359C14.2172 6.11981 14.4399 6.28145 14.6907 6.38534C14.9414 6.48923 15.2132 6.53244 15.4838 6.51146C15.7544 6.49048 16.0162 6.40589 16.248 6.26459C17.791 5.32459 19.558 7.09059 18.618 8.63459C18.4769 8.86625 18.3924 9.12793 18.3715 9.39837C18.3506 9.6688 18.3938 9.94036 18.4975 10.191C18.6013 10.4416 18.7627 10.6642 18.9687 10.8406C19.1747 11.0171 19.4194 11.1425 19.683 11.2066C21.439 11.6326 21.439 14.1306 19.683 14.5566C19.4192 14.6205 19.1742 14.7458 18.968 14.9223C18.7618 15.0988 18.6001 15.3215 18.4963 15.5722C18.3924 15.823 18.3491 16.0948 18.3701 16.3654C18.3911 16.636 18.4757 16.8978 18.617 17.1296C19.557 18.6726 17.791 20.4396 16.247 19.4996C16.0153 19.3585 15.7537 19.274 15.4832 19.2531C15.2128 19.2322 14.9412 19.2753 14.6906 19.3791C14.44 19.4829 14.2174 19.6443 14.0409 19.8503C13.8645 20.0563 13.7391 20.301 13.675 20.5646C13.249 22.3206 10.751 22.3206 10.325 20.5646C10.2611 20.3008 10.1358 20.0558 9.95929 19.8496C9.7828 19.6434 9.56011 19.4817 9.30935 19.3778C9.05859 19.274 8.78683 19.2307 8.51621 19.2517C8.24559 19.2727 7.98375 19.3573 7.752 19.4986C6.209 20.4386 4.442 18.6726 5.382 17.1286C5.5231 16.8969 5.60755 16.6353 5.62848 16.3648C5.64942 16.0944 5.60624 15.8228 5.50247 15.5722C5.3987 15.3216 5.23726 15.099 5.03127 14.9225C4.82529 14.7461 4.58056 14.6207 4.317 14.5566C2.561 14.1306 2.561 11.6326 4.317 11.2066C4.5808 11.1427 4.82578 11.0174 5.032 10.8409C5.23822 10.6644 5.39985 10.4417 5.50375 10.1909C5.60764 9.94018 5.65085 9.66843 5.62987 9.39781C5.60889 9.12719 5.5243 8.86534 5.383 8.63359C4.443 7.09059 6.209 5.32359 7.753 6.26359C8.749 6.87159 10.049 6.33359 10.325 5.19859Z" stroke="#434659" stroke-width="2" stroke-linecap="round" stroke-linejoin="round"/>
<path d="M15 12.8816C15 13.6772 14.6839 14.4403 14.1213 15.0029C13.5587 15.5655 12.7956 15.8816 12 15.8816C11.2044 15.8816 10.4413 15.5655 9.87868 15.0029C9.31607 14.4403 9 13.6772 9 12.8816C9 12.0859 9.31607 11.3229 9.87868 10.7603C10.4413 10.1977 11.2044 9.88159 12 9.88159C12.7956 9.88159 13.5587 10.1977 14.1213 10.7603C14.6839 11.3229 15 12.0859 15 12.8816V12.8816Z" stroke="#434659" stroke-width="2" stroke-linecap="round" stroke-linejoin="round"/>
</svg>
